<svg width="242" height="306" viewBox="0 0 242 306" fill="none" xmlns="http://www.w3.org/2000/svg">
<path d="M34.0689 246.141C30.9407 249.615 28.6057 253.612 27.2986 257.656C26.3836 260.504 25.9443 263.315 25.9443 265.948C25.9443 267.555 26.1033 269.086 26.4488 270.533C26.7105 271.607 27.0649 272.635 27.5413 273.578C27.8963 274.297 28.326 274.979 28.8298 275.595C29.5865 276.51 30.52 277.303 31.6316 277.855C32.7337 278.415 34.0037 278.714 35.2923 278.704V272.868C35.0215 272.868 34.8159 272.83 34.6199 272.774C34.2745 272.681 33.9942 272.522 33.6768 272.242C33.4527 272.027 33.21 271.747 32.9859 271.364C32.6494 270.813 32.3321 270.047 32.1175 269.132C31.903 268.208 31.781 267.134 31.781 265.948C31.781 263.978 32.1265 261.736 32.855 259.439C33.537 257.329 34.6199 255.143 36.0393 253.07C38.1592 249.951 41.0543 247.103 44.397 245.067C46.0591 244.049 47.852 243.228 49.7107 242.667C51.5784 242.106 53.5304 241.807 55.5474 241.807C58.2369 241.807 60.8146 242.349 63.2237 243.32C66.8282 244.758 70.0872 247.177 72.693 250.062C75.2892 252.939 77.222 256.282 78.2309 259.438C78.9684 261.736 79.3144 263.977 79.3144 265.947C79.3144 267.152 79.1836 268.245 78.9594 269.169C78.8005 269.86 78.5763 270.477 78.3337 270.962C78.1466 271.336 77.9506 271.635 77.7456 271.887C77.4468 272.251 77.1479 272.485 76.8587 272.634C76.5598 272.774 76.2515 272.858 75.8032 272.868V278.704C76.5688 278.714 77.3254 278.602 78.0444 278.406C79.3049 278.06 80.435 277.406 81.3596 276.556C82.0505 275.921 82.6296 275.193 83.106 274.399C83.8345 273.204 84.3389 271.878 84.6653 270.459C84.9916 269.039 85.1512 267.526 85.1512 265.948C85.1512 263.315 84.7125 260.494 83.7969 257.656C82.9285 254.957 81.6023 252.286 79.884 249.774C77.3063 246.01 73.8698 242.592 69.7424 240.071C67.6787 238.82 65.4464 237.792 63.0654 237.083C60.6843 236.354 58.1628 235.962 55.548 235.962C52.0649 235.962 48.7401 236.672 45.7052 237.895C41.138 239.725 37.197 242.676 34.0689 246.141Z" fill="white"/>
<path d="M66.9682 270.206C66.0156 270.962 65.4556 272.102 65.4556 273.325V278.041C65.4556 279.255 66.0162 280.404 66.9682 281.16C67.9209 281.907 69.1724 282.188 70.3486 281.907L73.4958 281.16V270.197L70.3486 269.45C69.1718 269.169 67.9209 269.45 66.9682 270.206Z" fill="white"/>
<path d="M40.7461 269.45L37.5898 270.197V281.16L40.7461 281.907C41.9229 282.188 43.1743 281.907 44.1264 281.16C45.0791 280.404 45.6391 279.255 45.6391 278.041V273.325C45.6391 272.102 45.0785 270.963 44.1264 270.206C43.1743 269.449 41.9229 269.17 40.7461 269.45Z" fill="white"/>
<path d="M239.009 256.75C237.804 252.249 236.105 248.214 234.013 244.628C230.343 238.325 225.487 233.422 220.127 229.538C216.103 226.624 211.807 224.243 207.437 222.198C200.89 219.135 194.195 216.781 188.013 214.493C181.831 212.215 176.181 209.983 171.783 207.387C170.176 206.434 168.729 205.444 167.478 204.408C165.61 202.849 164.153 201.186 163.098 199.328C162.043 197.47 161.333 195.378 161.063 192.763C160.867 190.896 160.782 189.14 160.782 187.459C160.782 182.51 161.511 178.223 162.444 173.844C165.209 170.725 167.739 167.008 170.13 162.563C172.53 158.09 174.808 152.87 177.077 146.688C178.534 146.025 180.001 145.23 181.429 144.259C184.697 142.074 187.798 139.011 190.384 134.93C192.962 130.85 195.035 125.779 196.454 119.522C196.846 117.785 197.033 116.058 197.033 114.358C197.043 110.809 196.202 107.429 194.792 104.403C193.811 102.302 192.569 100.379 191.122 98.6324C191.859 95.9053 192.756 92.2357 193.559 87.9397C194.661 81.9727 195.576 74.8009 195.576 67.2644C195.576 62.3989 195.193 57.375 194.203 52.4162C193.466 48.6994 192.373 45.0107 190.841 41.4809C188.535 36.1672 185.182 31.1714 180.522 27.0439C176.208 23.2243 170.801 20.1805 164.273 18.2285C161.967 15.4644 159.651 13.1108 157.279 11.1128C155.224 9.39456 153.123 7.94703 150.975 6.76128C147.744 4.96832 144.401 3.78257 140.974 3.06299C137.547 2.34341 134.054 2.08223 130.431 2.08223C125.435 2.08223 120.178 2.57709 114.369 3.14666C112.174 3.37078 110.335 3.64152 108.738 3.92182C106.357 4.35154 104.573 4.79021 103.144 5.08008C102.425 5.21993 101.8 5.33229 101.183 5.407C100.567 5.47214 99.9696 5.51936 99.2876 5.51936C98.3726 5.51936 97.3172 5.44465 95.9354 5.24862C91.7052 4.63243 87.8389 3.67977 84.804 2.74563C83.2914 2.28783 81.9837 1.83062 80.9563 1.43796C80.4429 1.24193 79.9947 1.06443 79.6397 0.915012C79.2757 0.765598 79.0044 0.625746 78.846 0.551039L78.8555 0.560602C78.3888 0.317953 77.9405 0.187066 77.5389 0.112359C77.1373 0.0185273 76.7829 0 76.4745 0C75.8302 0 75.3724 0.0932344 75.0084 0.187066C74.6445 0.280898 74.3642 0.39266 74.1119 0.495457C73.6261 0.691488 73.2525 0.897082 72.879 1.1212C72.1971 1.53239 71.5438 1.9896 70.8523 2.52211C69.6475 3.45625 68.3218 4.61391 66.9114 5.97716C64.8011 8.01278 62.5407 10.4781 60.4866 13.1676C59.4592 14.5027 58.4976 15.9036 57.6292 17.3512C56.7608 18.7987 55.9952 20.2833 55.388 21.8431C52.4182 29.5661 50.4573 36.6818 49.2435 43.247C48.0201 49.8117 47.5533 55.8259 47.5533 61.3446C47.5533 70.3746 48.8138 78.0324 50.0282 84.5038C50.0282 84.8122 50.0378 85.1015 50.0563 85.4099C50.0939 86.0171 50.1591 86.6428 50.2242 87.2961C50.327 88.2673 50.4388 89.2665 50.5231 90.1068C50.5697 90.527 50.6073 90.9005 50.6354 91.1904C50.645 91.3302 50.6539 91.4611 50.6539 91.5544L50.6635 91.6476V91.6757V91.6853V92.2363L51.8492 97.5124C50.1405 99.3801 48.6649 101.472 47.5162 103.769C45.9097 106.963 44.9577 110.568 44.9577 114.378C44.9577 116.059 45.1537 117.796 45.5458 119.523C46.4799 123.697 47.7218 127.339 49.2064 130.514C51.4291 135.286 54.2494 138.994 57.368 141.777C59.7867 143.943 62.3734 145.522 64.9319 146.689C67.1917 152.871 69.4706 158.082 71.8701 162.555C74.2608 167.009 76.7823 170.716 79.5464 173.835C80.4806 178.215 81.2085 182.511 81.2181 187.46C81.2181 189.141 81.1249 190.897 80.9288 192.764C80.7418 194.557 80.3497 196.108 79.7801 197.509C78.9303 199.6 77.6883 201.384 75.9982 203.075C74.308 204.737 72.1504 206.297 69.6014 207.744C67.0148 209.21 64.0169 210.583 60.7579 211.891C55.0425 214.207 48.5245 216.392 41.9222 219.034C36.973 221.005 31.9581 223.256 27.1768 226.066C23.5909 228.177 20.1448 230.624 16.97 233.528C12.2169 237.879 8.11695 243.305 5.28764 250.01C2.44877 256.724 0.870364 264.671 0.879926 274.065C0.879926 275.392 1.16023 276.652 1.61743 277.819C2.03759 278.912 2.62628 279.911 3.31717 280.864C4.62484 282.638 6.30545 284.226 8.36916 285.757C11.9927 288.428 16.8015 290.931 23.0303 293.284C32.3686 296.805 44.8824 299.971 61.0657 302.268C77.2401 304.565 97.0841 306.003 120.99 306.003C141.731 306.003 159.399 304.929 174.275 303.146C185.425 301.801 195.015 300.064 203.15 298.075C209.257 296.59 214.552 294.956 219.09 293.238C222.49 291.949 225.478 290.604 228.074 289.222C230.016 288.186 231.734 287.121 233.256 286.028C235.535 284.375 237.365 282.676 238.757 280.742C239.457 279.781 240.027 278.753 240.447 277.633C240.867 276.531 241.119 275.317 241.119 274.065C241.119 267.638 240.382 261.895 239.009 256.75ZM163.592 214.017L133.616 260.83L130.273 237.849L138.78 228.846L133.27 219.657L156.523 207.433C157.167 208.265 157.849 209.049 158.568 209.796C160.109 211.374 161.799 212.766 163.592 214.017ZM77.4176 52.0893C104.443 58.0844 157.289 46.6262 157.289 46.6262C157.289 46.6262 157.859 59.728 166.87 71.7558C170.419 76.4809 173.341 83.8679 175.536 90.8904C174.948 89.7979 173.566 89.3867 171.502 89.1255C166.87 88.4997 159.987 88.0981 152.237 88.4717C129.209 89.6018 130.917 91.6936 121.878 91.6936C112.838 91.6936 114.547 89.6018 91.5187 88.4717C83.7677 88.0981 76.8857 88.4997 72.2443 89.1255C69.8351 89.4428 68.3219 89.9287 67.9764 91.5346C67.8551 92.1323 67.668 92.8047 66.8373 93.1316C69.3869 83.6067 76.4841 71.4384 77.4176 52.0893ZM171.156 105.468C171.156 105.599 171.063 118.803 162.079 123.313C159.026 124.854 155.197 125.704 151.303 125.713C147.194 125.713 143.44 124.779 140.442 123.014C137.127 121.072 134.895 118.187 133.803 114.46C133.541 113.592 133.308 112.723 133.065 111.882C132.355 109.314 130.441 102.18 134.503 99.0424C137.118 96.9972 145.233 95.7087 153.012 95.7087C160.081 95.7087 167.291 96.6703 169.401 98.8745C170.792 100.332 171.334 102.928 171.156 105.468ZM110.69 111.883C110.448 112.723 110.204 113.592 109.953 114.461C108.86 118.187 106.628 121.073 103.322 123.015C100.316 124.78 96.5611 125.714 92.4522 125.714C88.5579 125.704 84.7389 124.855 81.6759 123.314C72.6925 118.803 72.6082 105.599 72.5987 105.468C72.4212 102.928 72.9627 100.332 74.345 98.8756C76.4649 96.6715 83.6739 95.7099 90.7435 95.7099C98.5131 95.7099 106.638 96.9984 109.261 99.0436C113.315 102.181 111.4 109.315 110.69 111.883ZM80.6862 157.819C78.3422 153.448 76.0077 148.014 73.6075 141.234L72.8138 139.021L70.6097 138.209C69.0779 137.648 67.5837 136.92 66.1553 135.958C63.9984 134.51 61.9532 132.531 60.076 129.58C58.1987 126.628 56.5181 122.669 55.3043 117.318C55.0706 116.3 54.9774 115.329 54.9774 114.376C54.9774 112.228 55.4908 110.193 56.4715 108.25C57.2748 106.635 58.3954 105.113 59.7586 103.73C62.056 107.205 63.9608 109.959 64.6522 110.65C65.9689 111.967 66.6227 110.697 66.7255 108.231C67.5377 113.713 70.1435 122.762 78.5573 127.235C90.6694 133.669 108.749 131.26 114.883 116.935C117.657 110.473 117.694 104.16 121.878 104.16C126.052 104.16 126.099 110.473 128.872 116.935C135.017 131.26 153.096 133.669 165.208 127.235C177.31 120.801 177.395 104.87 177.395 103.749C177.395 103.17 177.946 102.731 178.73 102.647C179.757 106.97 180.289 109.903 180.289 109.903C180.289 109.903 181.447 107.69 183.184 104.739C184.221 105.952 185.08 107.26 185.715 108.623C186.565 110.454 187.022 112.368 187.022 114.357C187.022 115.319 186.92 116.3 186.686 117.309C185.883 120.876 184.865 123.827 183.726 126.273C182.007 129.934 180.027 132.456 177.955 134.305C175.891 136.154 173.687 137.358 171.399 138.208L169.186 139.011L168.401 141.234C166.001 148.014 163.657 153.458 161.314 157.819C158.96 162.19 156.626 165.477 154.198 168.035L153.236 169.053L152.937 170.407C151.854 175.403 150.771 180.923 150.771 187.459C150.771 189.476 150.874 191.578 151.098 193.791C151.369 196.387 151.966 198.824 152.854 201.065C152.891 201.168 152.947 201.28 152.985 201.374L122.569 217.371L88.8579 201.729C89.8943 199.3 90.5947 196.649 90.8935 193.791C91.1272 191.578 91.2205 189.477 91.2205 187.46C91.23 180.922 90.1465 175.394 89.054 170.398L88.7551 169.044L87.7935 168.035C85.3742 165.458 83.0302 162.189 80.6862 157.819ZM80.4154 212.523C82.1713 211.113 83.7868 209.535 85.2152 207.76L110.924 219.695L105.433 228.847L113.931 237.849L110.793 259.486L77.9967 214.298C78.8281 213.727 79.6403 213.139 80.4154 212.523ZM231.1 274.025C231.09 274.082 231.025 274.268 230.847 274.567C230.511 275.146 229.727 276.08 228.401 277.145C227.252 278.069 225.701 279.105 223.75 280.17C220.323 282.048 215.682 283.999 209.798 285.848C200.965 288.631 189.301 291.171 174.583 293.02C159.866 294.851 142.095 295.99 120.99 295.99C100.614 295.99 83.338 294.925 68.9195 293.198C58.1055 291.9 48.898 290.219 41.2217 288.351C35.4508 286.941 30.5386 285.419 26.4578 283.869C23.3853 282.711 20.7801 281.534 18.6417 280.386C17.0352 279.526 15.6815 278.677 14.5794 277.892C12.9358 276.715 11.8899 275.641 11.367 274.904C11.1052 274.549 10.9749 274.269 10.9283 274.138C10.9002 274.082 10.8907 274.045 10.8907 274.026C10.8907 268.423 11.526 263.623 12.6275 259.458C13.5891 255.816 14.9153 252.65 16.5308 249.849C19.3511 244.946 23.0584 241.099 27.4661 237.858C30.7532 235.421 34.4419 233.338 38.3452 231.48C42.7248 229.398 47.3752 227.605 52.0447 225.877V235.962H55.5464H59.048V223.29C63.5119 221.619 67.8635 219.9 71.9162 217.846L123.735 289.238L169.007 218.556C169.147 218.77 169.288 218.985 169.418 219.191C171.305 222.226 172.621 225.532 173.499 229.276C174.368 233.012 174.769 237.195 174.769 241.855C174.769 252.651 174.769 262.054 174.769 268.386H158.503V275.399H198.546V268.386H182.278C182.278 262.054 182.278 252.651 182.278 241.855C182.278 235.067 181.503 228.884 179.579 223.244C179.411 222.758 179.234 222.273 179.047 221.796C184.519 223.953 190.243 225.896 195.791 228.1C200.544 229.977 205.157 232.031 209.35 234.468C212.506 236.299 215.43 238.353 218.026 240.688C221.92 244.227 225.113 248.401 227.411 253.752C229.699 259.094 231.1 265.668 231.1 274.025Z" fill="white"/>
</svg>
