<svg id="visual" viewBox="0 0 1280 920" width="1280" height="920" xmlns="http://www.w3.org/2000/svg" xmlns:xlink="http://www.w3.org/1999/xlink" version="1.1"><path d="M0 707L21.3 702.8C42.7 698.7 85.3 690.3 128 693C170.7 695.7 213.3 709.3 256 716.7C298.7 724 341.3 725 384 728.5C426.7 732 469.3 738 512 740.5C554.7 743 597.3 742 640 739.8C682.7 737.7 725.3 734.3 768 735.3C810.7 736.3 853.3 741.7 896 738.8C938.7 736 981.3 725 1024 714.3C1066.7 703.7 1109.3 693.3 1152 690.7C1194.7 688 1237.3 693 1258.7 695.5L1280 698L1280 921L1258.7 921C1237.3 921 1194.7 921 1152 921C1109.3 921 1066.7 921 1024 921C981.3 921 938.7 921 896 921C853.3 921 810.7 921 768 921C725.3 921 682.7 921 640 921C597.3 921 554.7 921 512 921C469.3 921 426.7 921 384 921C341.3 921 298.7 921 256 921C213.3 921 170.7 921 128 921C85.3 921 42.7 921 21.3 921L0 921Z" fill="#69d7fa"></path><path d="M0 715L21.3 722C42.7 729 85.3 743 128 745.5C170.7 748 213.3 739 256 731.3C298.7 723.7 341.3 717.3 384 724.7C426.7 732 469.3 753 512 763C554.7 773 597.3 772 640 764C682.7 756 725.3 741 768 744.2C810.7 747.3 853.3 768.7 896 778C938.7 787.3 981.3 784.7 1024 776.8C1066.7 769 1109.3 756 1152 746.3C1194.7 736.7 1237.3 730.3 1258.7 727.2L1280 724L1280 921L1258.7 921C1237.3 921 1194.7 921 1152 921C1109.3 921 1066.7 921 1024 921C981.3 921 938.7 921 896 921C853.3 921 810.7 921 768 921C725.3 921 682.7 921 640 921C597.3 921 554.7 921 512 921C469.3 921 426.7 921 384 921C341.3 921 298.7 921 256 921C213.3 921 170.7 921 128 921C85.3 921 42.7 921 21.3 921L0 921Z" fill="#5eccf2"></path><path d="M0 796L21.3 788.3C42.7 780.7 85.3 765.3 128 765.8C170.7 766.3 213.3 782.7 256 791.7C298.7 800.7 341.3 802.3 384 800.2C426.7 798 469.3 792 512 782.3C554.7 772.7 597.3 759.3 640 760.2C682.7 761 725.3 776 768 782.5C810.7 789 853.3 787 896 779C938.7 771 981.3 757 1024 760.5C1066.7 764 1109.3 785 1152 795.3C1194.7 805.7 1237.3 805.3 1258.7 805.2L1280 805L1280 921L1258.7 921C1237.3 921 1194.7 921 1152 921C1109.3 921 1066.7 921 1024 921C981.3 921 938.7 921 896 921C853.3 921 810.7 921 768 921C725.3 921 682.7 921 640 921C597.3 921 554.7 921 512 921C469.3 921 426.7 921 384 921C341.3 921 298.7 921 256 921C213.3 921 170.7 921 128 921C85.3 921 42.7 921 21.3 921L0 921Z" fill="#53c1e9"></path><path d="M0 836L21.3 831.8C42.7 827.7 85.3 819.3 128 811.2C170.7 803 213.3 795 256 789.7C298.7 784.3 341.3 781.7 384 784.2C426.7 786.7 469.3 794.3 512 795C554.7 795.7 597.3 789.3 640 788.8C682.7 788.3 725.3 793.7 768 801.5C810.7 809.3 853.3 819.7 896 820.3C938.7 821 981.3 812 1024 809.2C1066.7 806.3 1109.3 809.7 1152 807.7C1194.7 805.7 1237.3 798.3 1258.7 794.7L1280 791L1280 921L1258.7 921C1237.3 921 1194.7 921 1152 921C1109.3 921 1066.7 921 1024 921C981.3 921 938.7 921 896 921C853.3 921 810.7 921 768 921C725.3 921 682.7 921 640 921C597.3 921 554.7 921 512 921C469.3 921 426.7 921 384 921C341.3 921 298.7 921 256 921C213.3 921 170.7 921 128 921C85.3 921 42.7 921 21.3 921L0 921Z" fill="#48b6e1"></path><path d="M0 808L21.3 816.7C42.7 825.3 85.3 842.7 128 846.8C170.7 851 213.3 842 256 837.2C298.7 832.3 341.3 831.7 384 832.2C426.7 832.7 469.3 834.3 512 835.5C554.7 836.7 597.3 837.3 640 836C682.7 834.7 725.3 831.3 768 834.5C810.7 837.7 853.3 847.3 896 845.8C938.7 844.3 981.3 831.7 1024 828.3C1066.7 825 1109.3 831 1152 837C1194.7 843 1237.3 849 1258.7 852L1280 855L1280 921L1258.7 921C1237.3 921 1194.7 921 1152 921C1109.3 921 1066.7 921 1024 921C981.3 921 938.7 921 896 921C853.3 921 810.7 921 768 921C725.3 921 682.7 921 640 921C597.3 921 554.7 921 512 921C469.3 921 426.7 921 384 921C341.3 921 298.7 921 256 921C213.3 921 170.7 921 128 921C85.3 921 42.7 921 21.3 921L0 921Z" fill="#3dabd8"></path><path d="M0 841L21.3 846.3C42.7 851.7 85.3 862.3 128 864C170.7 865.7 213.3 858.3 256 857.3C298.7 856.3 341.3 861.7 384 861.7C426.7 861.7 469.3 856.3 512 851.8C554.7 847.3 597.3 843.7 640 841.3C682.7 839 725.3 838 768 841.5C810.7 845 853.3 853 896 854C938.7 855 981.3 849 1024 844.8C1066.7 840.7 1109.3 838.3 1152 842.7C1194.7 847 1237.3 858 1258.7 863.5L1280 869L1280 921L1258.7 921C1237.3 921 1194.7 921 1152 921C1109.3 921 1066.7 921 1024 921C981.3 921 938.7 921 896 921C853.3 921 810.7 921 768 921C725.3 921 682.7 921 640 921C597.3 921 554.7 921 512 921C469.3 921 426.7 921 384 921C341.3 921 298.7 921 256 921C213.3 921 170.7 921 128 921C85.3 921 42.7 921 21.3 921L0 921Z" fill="#31a1d0"></path><path d="M0 875L21.3 873.8C42.7 872.7 85.3 870.3 128 869C170.7 867.7 213.3 867.3 256 870.3C298.7 873.3 341.3 879.7 384 882.5C426.7 885.3 469.3 884.7 512 883.7C554.7 882.7 597.3 881.3 640 882.5C682.7 883.7 725.3 887.3 768 890.8C810.7 894.3 853.3 897.7 896 893.3C938.7 889 981.3 877 1024 871.2C1066.7 865.3 1109.3 865.7 1152 870C1194.7 874.3 1237.3 882.7 1258.7 886.8L1280 891L1280 921L1258.7 921C1237.3 921 1194.7 921 1152 921C1109.3 921 1066.7 921 1024 921C981.3 921 938.7 921 896 921C853.3 921 810.7 921 768 921C725.3 921 682.7 921 640 921C597.3 921 554.7 921 512 921C469.3 921 426.7 921 384 921C341.3 921 298.7 921 256 921C213.3 921 170.7 921 128 921C85.3 921 42.7 921 21.3 921L0 921Z" fill="#2496c7"></path></svg>