<svg width="800" height="800" viewBox="0 0 800 800" fill="none" xmlns="http://www.w3.org/2000/svg">
<path fill-rule="evenodd" clip-rule="evenodd" d="M400 66.6666C584.095 66.6666 733.333 215.905 733.333 400C733.333 584.095 584.095 733.333 400 733.333C215.905 733.333 66.6665 584.095 66.6665 400C66.6665 215.905 215.905 66.6666 400 66.6666ZM400 133.333C252.724 133.333 133.333 252.724 133.333 400C133.333 547.276 252.724 666.667 400 666.667C547.276 666.667 666.666 547.276 666.666 400C666.666 252.724 547.276 133.333 400 133.333ZM509.763 276.43L333.333 452.86L290.237 409.763C277.219 396.746 256.114 396.746 243.096 409.763C230.079 422.781 230.079 443.886 243.096 456.903L309.763 523.57C322.78 536.588 343.886 536.588 356.903 523.57L556.903 323.57C569.921 310.553 569.921 289.447 556.903 276.43C543.886 263.412 522.78 263.412 509.763 276.43Z" fill="white"/>
</svg>
