<svg width="594" height="660" viewBox="0 0 594 660" fill="none" xmlns="http://www.w3.org/2000/svg">
<path d="M363.667 263.333V496.667M230.333 263.333V496.667M97.0002 130V523.333C97.0002 560.67 97.0002 579.327 104.266 593.587C110.658 606.13 120.849 616.35 133.393 622.74C147.64 630 166.3 630 203.564 630H390.437C427.7 630 446.333 630 460.58 622.74C473.123 616.35 483.35 606.13 489.74 593.587C497 579.34 497 560.7 497 523.437V130M97.0002 130H163.667M97.0002 130H30.3335M497 130H430.333M497 130H563.667M163.667 130H430.333M163.667 130C163.667 98.9373 163.667 83.4137 168.741 71.162C175.508 54.827 188.477 41.841 204.813 35.0747C217.064 30 232.603 30 263.667 30H330.333C361.397 30 376.927 30 389.18 35.0747C405.513 41.841 418.49 54.827 425.257 71.162C430.33 83.4133 430.333 98.9373 430.333 130" stroke="white" stroke-width="60" stroke-linecap="round" stroke-linejoin="round"/>
</svg>
